inDegrees=yes
name=ik_lifting_orientations
DataType=double
version=3
OpenSimVersion=4.5-2024-01-10-34fd6af
endheader
time	pelvis_tilt	pelvis_list	pelvis_rotation	pelvis_tx	pelvis_ty	pelvis_tz	hip_flexion_r	hip_adduction_r	hip_rotation_r	knee_angle_r	knee_angle_r_beta	ankle_angle_r	subtalar_angle_r	mtp_angle_r	hip_flexion_l	hip_adduction_l	hip_rotation_l	knee_angle_l	knee_angle_l_beta	ankle_angle_l	subtalar_angle_l	mtp_angle_l	lumbar_extension	lumbar_bending	lumbar_rotation	arm_flex_r	arm_add_r	arm_rot_r	elbow_flex_r	pro_sup_r	wrist_flex_r	wrist_dev_r	arm_flex_l	arm_add_l	arm_rot_l	elbow_flex_l	pro_sup_l	wrist_flex_l	wrist_dev_l
0.02	-0.0089229536780389	-0.02153415442201918	-90.00368116460176	0	0.9399999998679526	0	44.99032510534573	-11.65891933607997	0	59.99596541378315	1.047127134383158	-5.804286474015163	0	0	44.99032510534573	-11.65891933607997	0	59.99596541378315	1.047127134383158	-5.804286474015163	0	0	-0.03898173104619926	0.01221672077110616	0.02677330334047006	-0.4653440095976962	-0.1240487427159673	-0.04095811641964784	1.00671123607382	2.549690785199041	0	0	0	-10.29457151093285	0	87.50082066133041	2.549690785199041	0	0
0.03	0.004649282269057963	0.01195561636750778	-89.99668913004301	0	0.9399999998679526	0	44.99060655102904	-11.51502785263386	0	59.9960618570096	1.047128817635001	-5.718705427536144	0	0	44.99060655102904	-11.51502785263386	0	59.9960618570096	1.047128817635001	-5.718705427536144	0	0	0.01192138902021698	-0.003324755217473615	-7.910665009366342e-05	-0.2240473156231125	-0.06255315278405289	-0.006012087705798125	0.5291552459944826	2.496980101052346	0	0	0	-10.36710928616742	0	87.55248222915331	2.496980101052346	0	0
0.04	0.01266117203941237	-0.006239950941112276	-90.00206186236454	0	0.9399999998679526	0	44.99100075446495	-11.31965644042897	0	59.99619728160236	1.047131181240033	-5.603961370442907	0	0	44.99100075446495	-11.31965644042897	0	59.99619728160236	1.047131181240033	-5.603961370442907	0	0	0.0258576684930678	-0.03891410062383603	0.1018588291899715	-0.31186509407378	-0.04890104052261602	-0.1052353414266467	0.6453018446213374	2.422860644651785	0	0	0	-10.4693511042095	0	87.62512650753663	2.422860644651785	0	0
0.05	0.001067035652058897	-0.00323819715650892	-89.99951845098401	0	0.9399999998679526	0	44.99119341561382	-11.23147059467929	0	59.9962639804955	1.047132345355325	-5.553664172055715	0	0	44.99119341561382	-11.23147059467929	0	59.9962639804955	1.047132345355325	-5.553664172055715	0	0	-0.004692104636995811	-0.002688912952546876	0.0676139511185187	-0.218478109374449	-0.05589884875982661	-0.07408340336510914	0.5223539090536615	2.386244927817126	0	0	0	-10.52019359107315	0	87.66101354176358	2.386244927817126	0	0
0.06	0.006639525574085027	-0.001107813984867434	-89.9892459328116	0	0.9399999998679526	0	44.99140394888271	-11.14092312178433	0	59.99633730166777	1.047133625051193	-5.503198698005952	0	0	44.99140394888271	-11.14092312178433	0	59.99633730166777	1.047133625051193	-5.503198698005952	0	0	-0.002368978156959108	-0.002440663546119856	-0.005691299360439448	-0.2215063925471197	-0.06483239682998627	-0.0203619522281587	0.5329886905721986	2.345895257861165	0	0	0	-10.57651030054554	0	87.70056027850985	2.345895257861165	0	0
0.07000000000000001	-0.0009460550278663494	0.0006321022339490851	-90.00687906630657	0	0.9399999998679526	0	44.99176405274645	-10.99388741504899	0	59.9964633390617	1.047135824818698	-5.422851141313505	0	0	44.99176405274645	-10.99388741504899	0	59.9964633390617	1.047135824818698	-5.422851141313505	0	0	0.03917747743645235	-0.03225424549096265	0.1044628317100121	-0.3195418974806815	-0.03551492134435497	-0.1006044923330243	0.6484806132705231	2.276402671088664	0	0	0	-10.67391174247338	0	87.76867008004575	2.276402671088664	0	0
0.08	-0.004749998565187191	0.001475351486070324	-90.00106499392176	0	0.9399999998679526	0	44.99194974715185	-10.92495870841543	0	59.99652896375019	1.047136970185582	-5.38646366211414	0	0	44.99194974715185	-10.92495870841543	0	59.99652896375019	1.047136970185582	-5.38646366211414	0	0	0.02901392611039835	-0.02810344196709292	0.1010142618124448	-0.2471925781633039	-0.02310314937545662	-0.104832133721294	0.5225325217236999	2.240095110894383	0	0	0	-10.72521308903687	0	87.80425525527653	2.240095110894383	0	0
0.09	0.001951836512740928	0.002727281454235745	-89.99948114364655	0	0.9399999998679526	0	44.9921537753292	-10.85370934307788	0	59.99660147067142	1.047138235670088	-5.349694661274451	0	0	44.9921537753292	-10.85370934307788	0	59.99660147067142	1.047138235670088	-5.349694661274451	0	0	0.003303136679474031	0.0004568832501558404	0.06883522732811588	-0.2187918959385545	-0.05658955297205333	-0.0746631275242645	0.5209473370715951	2.199871433764514	0	0	0	-10.78233730259375	0	87.84367868131396	2.199871433764514	0	0
0.1	-0.005375165096350363	0.03708108218070716	-90.01077960072951	0	0.9399999998679526	0	44.99231904174852	-10.79741905879914	0	59.99666035595287	1.047139263412131	-5.320918424767184	0	0	44.99231904174852	-10.79741905879914	0	59.99666035595287	1.047139263412131	-5.320918424767184	0	0	0.09369154018289617	-0.01445992752181569	0.08123779599584786	-0.5137140850496551	-0.08814253492183735	-0.04798713565606808	1.005132737149242	2.167179202322015	0	0	0	-10.82886268260226	0	87.87572051288936	2.167179202322015	0	0
0.11	0.00433445728970062	0.003650752886149116	-90.00261894081584	0	0.9399999998679526	0	44.99248724890054	-10.74337005761581	0	59.99672063813846	1.047140315534749	-5.293890349942298	0	0	44.99248724890054	-10.74337005761581	0	59.99672063813846	1.047140315534749	-5.293890349942298	0	0	0.07331912755900011	-0.06154987996683748	0.06567505737284414	-0.298381117053791	0.003264226302670465	-0.03659473450297598	0.5326334293050934	2.133646068497034	0	0	0	-10.87681198066131	0	87.90858655323002	2.133646068497034	0	0
0.12	-0.0001722696435829051	0.0001623507074050451	-90.00069553594237	0	0.9399999998679526	0	44.99265778373867	-10.6907344542691	0	59.99678197194496	1.047141386011616	-5.267948103861005	0	0	44.99265778373867	-10.6907344542691	0	59.99678197194496	1.047141386011616	-5.267948103861005	0	0	0.06204264397574992	-0.06206988564089783	0.06848343599812431	-0.2816055141692017	0.004410570364204712	-0.07332188136873735	0.5215669069518388	2.099459426400453	0	0	0	-10.92586279164724	0	87.94209312647408	2.099459426400453	0	0
0.13	-0.0005391787142310468	-7.170889551644197e-06	-89.99959832759227	0	0.9399999998679526	0	44.99322498517036	-10.5420057003477	0	59.996989258041	1.047145003836485	-5.198877785854707	0	0	44.99322498517036	-10.5420057003477	0	59.996989258041	1.047145003836485	-5.198877785854707	0	0	0.06194321386047447	-0.06152628644612355	0.06671194796455998	-0.281646961948077	0.004030433863736122	-0.07249539495367048	0.5217458577595179	1.983174607276882	0	0	0	-11.09502905173998	0	88.05606504381088	1.983174607276882	0	0
0.14	-0.0005404263189989906	0.03732672407016786	-90.0184613574139	0	0.9399999998679526	0	44.99336816567609	-10.50615797245237	0	59.99704186506814	1.047145922002318	-5.182461077321335	0	0	44.99336816567609	-10.50615797245237	0	59.99704186506814	1.047145922002318	-5.182461077321335	0	0	0.1479489254780528	-0.07744940445308297	0.1661939485372347	-0.5705014540829162	-0.03786564793633702	-0.1483312024043446	1.010865651599372	1.953607077790214	0	0	0	-11.138239531549	0	88.08504449749258	1.953607077790214	0	0
0.15	-0.002983204400881863	-0.000212368608599882	-89.99853271466633	0	0.9399999998679526	0	44.99351539729577	-10.47080629938137	0	59.99709617416482	1.047146869874869	-5.16653139614648	0	0	44.99351539729577	-10.47080629938137	0	59.99709617416482	1.047146869874869	-5.16653139614648	0	0	0.09130319781050668	-0.08989777997850207	0.159235780575473	-0.3201762170465972	0.02694367092720128	-0.19455173227397	0.5215752872772565	1.923035740807094	0	0	0	-11.18306651822701	0	88.11500781191637	1.923035740807094	0	0
0.16	0.006046835365249243	0.001790901376942589	-89.98194371019883	0	0.9399999998679526	0	44.99383433505588	-10.40702855054713	0	59.99721589435114	1.047148959386302	-5.139690695587172	0	0	44.99383433505588	-10.40702855054713	0	59.99721589435114	1.047148959386302	-5.139690695587172	0	0	0.08945855390061663	-0.09037114899197053	0.1537945602296326	-0.3217767723398251	0.02194056143389871	-0.2105368539932178	0.5058108858892119	1.855156831945318	0	0	0	-11.28411515196659	0	88.18153688187273	1.855156831945318	0	0
0.17	-0.004028814637017063	-0.002152117250115746	-89.99448291824753	0	0.9399999998679526	0	44.99397812439899	-10.37771863007252	0	59.99726983525386	1.047149900832656	-5.12719600832906	0	0	44.99397812439899	-10.37771863007252	0	59.99726983525386	1.047149900832656	-5.12719600832906	0	0	0.1183809170659667	-0.120770016268571	0.1909425926090747	-0.3553189805616562	0.07417391634071607	-0.1912082270061605	0.4856375400630581	1.824580324593709	0	0	0	-11.32961883508122	0	88.21150533933674	1.824580324593709	0	0
0.18	-0.007209113213737801	0.01290984708314242	-90.00360402538959	0	0.9399999998679526	0	44.99408205391379	-10.35791245257813	0	59.99730908914965	1.047150585942382	-5.118952761736845	0	0	44.99408205391379	-10.35791245257813	0	59.99730908914965	1.047150585942382	-5.118952761736845	0	0	0.1687596114609418	-0.1073311603073984	0.1973435749492643	-0.4543380737000801	0.05549194168948181	-0.165177855185031	0.6100371880793305	1.802270248447572	0	0	0	-11.363014903826	0	88.23337177330231	1.802270248447572	0	0
0.19	0.002255780603587425	-0.01655227408551075	-90.02195594441558	0	0.9399999998679526	0	44.99420935477815	-10.33382380925795	0	59.99735720737669	1.047151425763873	-5.108961118615702	0	0	44.99420935477815	-10.33382380925795	0	59.99735720737669	1.047151425763873	-5.108961118615702	0	0	0.09113013263133581	-0.1237679474370863	0.2159692343725609	-0.3970940371591811	0.06208204144683362	-0.1671589915825658	0.6083871218421864	1.774921604828094	0	0	0	-11.40397261803666	0	88.26017658207483	1.774921604828094	0	0
0.2	-0.002183295857102279	0.02398250286209979	-90.06233809769527	0	0.9399999998679526	0	44.99433377410925	-10.31138836947591	0	59.99740444334446	1.047152250187037	-5.099823101297963	0	0	44.99433377410925	-10.31138836947591	0	59.99740444334446	1.047152250187037	-5.099823101297963	0	0	0.1634460356674209	-0.112929681722166	0.2511710319711056	-0.6080351821222321	0.02040589773729377	-0.1365686917312557	0.9854642930303694	1.748020035958128	0	0	0	-11.44441820095869	0	88.28654322196742	1.748020035958128	0	0
0.21	0.002391021278058708	-0.006046150351331436	-90.06034662475268	0	0.9399999998679526	0	44.99446270077865	-10.2891275105587	0	59.99745360566954	1.047153108231477	-5.090906114593319	0	0	44.99446270077865	-10.2891275105587	0	59.99745360566954	1.047153108231477	-5.090906114593319	0	0	0.1096218611642171	-0.1218949907196613	0.1892321483046367	-0.3455234346917758	0.08285995438730141	-0.07361847025156795	0.5001567635991436	1.719981658862241	0	0	0	-11.48672407856086	0	88.31402407867341	1.719981658862241	0	0
0.22	-0.0005977829451453241	-0.001450901950647065	-90.06079336112828	0	0.9399999998679526	0	44.99460853061483	-10.26606273621057	0	59.997509674856	1.04715408682339	-5.081959982117901	0	0	44.99460853061483	-10.26606273621057	0	59.997509674856	1.04715408682339	-5.081959982117901	0	0	0.1158237751490499	-0.1206151868356594	0.1304067929687632	-0.3461960526168836	0.08449762779256438	-0.01340050616709627	0.4992635485988722	1.687883901737044	0	0	0	-11.5355137668488	0	88.34548363142564	1.687883901737044	0	0
0.23	-0.001254804282392118	-0.005550649551285298	-90.06116381363199	0	0.9399999998679526	0	44.9947047323557	-10.25170188661034	0	59.99754688580379	1.047154736276946	-5.076498729750305	0	0	44.9947047323557	-10.25170188661034	0	59.99754688580379	1.047154736276946	-5.076498729750305	0	0	0.1093461986722251	-0.1168448579098027	0.1344360312701814	-0.4121938957932568	0.06101848611639308	0.01895975012535187	0.5260609094505614	1.66653189858762	0	0	0	-11.56813827466943	0	88.36641110333245	1.66653189858762	0	0
0.24	-0.00918873507491976	0.009319138873803631	-90.12564038579409	0	0.9399999998679526	0	44.99484406166922	-10.23166733212696	0	59.9976009816532	1.04715568042763	-5.068989640408987	0	0	44.99484406166922	-10.23166733212696	0	59.9976009816532	1.04715568042763	-5.068989640408987	0	0	0.1387702068491112	-0.1057811635524334	0.191820901590208	-0.6595824543415645	0.008606214848864407	0.0524492745505421	1.004443067209827	1.635451678277057	0	0	0	-11.61577509075174	0	88.39687338292903	1.635451678277057	0	0
